<?xml version="1.0" encoding="UTF-8"?>
<svg version="1.1" xmlns="http://www.w3.org/2000/svg" width="1920" height="1920">
<path d="M0 0 C2.77803607 0.00565055 5.55606601 0.00846467 8.33410645 0.0110817 C34.95670903 0.04751961 61.46376441 0.38395959 87.97393799 3.06482315 C90.59999129 3.32991391 93.2269482 3.58438935 95.85412598 3.83807755 C181.88003715 12.25329869 266.99947967 31.75762425 367.48254395 71.31805801 C368.72177834 71.83715689 369.96103646 72.35619913 371.20031738 72.87518692 C388.7325794 80.23614271 405.93819232 88.18202378 422.98937988 96.59491348 C426.41256072 98.28353596 429.84179544 99.95935929 433.27160645 101.63446426 C446.64474812 108.20288041 459.715128 115.17717737 472.60412598 122.65008926 C475.5570289 124.36122012 478.517455 126.05880272 481.4786377 127.75555801 C525.66406953 153.18077429 567.23142653 182.61881993 606.68273926 214.85028458 C608.25564688 216.13301934 609.83352678 217.40965215 611.41223145 218.68524551 C622.79908658 227.90961184 633.78840301 237.56939454 644.50598145 247.56024551 C647.10646357 249.98149849 649.75617485 252.34156444 652.42004395 254.69305801 C657.28620247 259.0432291 661.85799054 263.66134609 666.44445801 268.30145645 C669.42860938 271.30847488 672.41973574 274.2200072 675.67004395 276.94305801 C679.4891755 280.17837328 682.78702179 283.84235268 686.12683105 287.55585098 C689.5499475 291.34726623 693.09593282 294.98161491 696.73254395 298.56805801 C700.53079672 302.32316925 704.18838949 306.13615022 707.6505127 310.20477676 C709.53141403 312.37443054 711.47167258 314.48258861 713.4251709 316.58685684 C718.16837246 321.69871358 722.68122685 326.92371522 727.05285645 332.36102676 C729.34289568 335.14810024 731.69614566 337.86025035 734.08044434 340.56610489 C741.04387385 348.47726879 747.47128982 356.70240619 753.81018066 365.1178627 C755.50587871 367.3487577 757.22531958 369.55889524 758.9552002 371.76337051 C759.54438232 372.51449112 760.13356445 373.26561172 760.74060059 374.03949356 C761.83232108 375.42835788 762.92622098 376.81551485 764.02331543 378.20013809 C775.15338517 392.39359272 785.32244454 407.29956319 795.29504395 422.31805801 C795.85703491 423.16289749 796.41902588 424.00773697 796.99804688 424.87817764 C811.80383883 447.1559879 825.6572016 469.8344763 838.48254395 493.31805801 C839.0730957 494.39619766 839.66364746 495.47433731 840.27209473 496.58514786 C886.39491471 580.94643864 919.61027047 672.33053877 953.48254395 883.31805801 C953.56085449 884.41558395 953.56085449 884.41558395 953.64074707 885.53528214 C956.79616159 930.31611661 956.72988947 975.54425134 953.48254395 1020.31805801 C953.42173645 1021.15802322 953.36092896 1021.99798843 953.29827881 1022.86340714 C946.82425553 1110.69785389 928.1435925 1197.5608404 864.93518066 1358.2247963 C863.98033419 1360.25805762 863.02873749 1362.29284883 862.08068848 1364.32928848 C855.41677121 1378.63885028 848.19782314 1392.54831777 840.48254395 1406.31805801 C840.01944824 1407.14676407 839.55635254 1407.97547012 839.07922363 1408.82928848 C836.56071064 1413.33337751 834.0289556 1417.82968596 831.48254395 1422.31805801 C825.34356738 1417.23922451 819.73334117 1411.70674011 814.11183167 1406.06760025 C813.07067854 1405.02688374 812.02930547 1403.98638723 810.98773283 1402.94609058 C808.1395064 1400.10009143 805.29439275 1397.25099845 802.44979417 1394.40137386 C799.37672078 1391.32397071 796.30074628 1388.24946968 793.22512817 1385.17461014 C787.90120168 1379.85120728 782.5791051 1374.52598065 777.25825691 1369.19950104 C769.56525753 1361.49836493 761.86948912 1353.8000008 754.17304819 1346.10230432 C741.68530715 1333.61237618 729.19979961 1321.12021781 716.71569824 1308.62665176 C704.59056975 1296.49234032 692.46438848 1284.35908254 680.33679199 1272.2272377 C679.58889517 1271.47907815 678.84099834 1270.7309186 678.07043798 1269.96008755 C674.31834775 1266.20669226 670.56623684 1262.45331765 666.81411564 1258.69995332 C635.70038433 1227.57586003 604.59027833 1196.448145 573.48254395 1165.31805801 C573.96224211 1163.549735 574.44262286 1161.78159713 574.92329407 1160.01353836 C575.19073331 1159.0288869 575.45817255 1158.04423544 575.73371601 1157.02974606 C576.50838112 1154.22449533 577.3464751 1151.44958501 578.2442627 1148.68133926 C595.70486684 1093.95481713 605.31690383 1036.77440228 606.48254395 979.31805801 C606.50445801 978.35077774 606.52637207 977.38349747 606.5489502 976.38690567 C608.0810209 898.28960171 593.92233112 819.60644748 550.48254395 712.31805801 C549.99286133 711.25506485 549.50317871 710.19207169 548.99865723 709.09686661 C542.30879206 694.62090714 534.99439722 680.63302077 526.95959473 666.85907364 C525.64618882 664.5995813 524.35458156 662.329722 523.0723877 660.05243301 C508.66770644 634.69686059 491.52787414 610.4769749 472.92248535 588.05780411 C470.90308075 585.617947 468.91383434 583.15386237 466.92004395 580.69305801 C456.52770525 567.90476981 456.52770525 567.90476981 445.1619873 555.99847794 C443.46954648 554.30505299 441.9244893 552.54346379 440.37316895 550.72040176 C436.14002688 545.85259486 431.6158045 541.30453576 427.04504395 536.75555801 C426.23744629 535.94409317 425.42984863 535.13262833 424.59777832 534.29657364 C420.2889398 529.99467925 415.90597086 525.84960302 411.28942871 521.87982559 C408.68802213 519.63131892 406.18611595 517.28669991 403.67004395 514.94305801 C398.12594567 509.82805596 392.37348493 505.0308108 386.48254395 500.31805801 C385.36348581 499.40729782 384.24502507 498.49580325 383.1270752 497.58368301 C358.75675814 477.77677186 332.71812837 459.95459749 305.48254395 444.31805801 C304.3813623 443.68577286 304.3813623 443.68577286 303.25793457 443.04071426 C298.03764018 440.06166627 292.77145957 437.17317421 287.48254395 434.31805801 C286.6288623 433.85431778 285.77518066 433.39057755 284.89562988 432.91278458 C269.44530327 424.55386194 253.66388864 417.15089804 237.48254395 410.31805801 C235.8583252 409.63211563 235.8583252 409.63211563 234.20129395 408.93231583 C164.72195069 379.93387599 89.68720901 364.8424769 14.48254395 363.31805801 C13.18703613 363.28518692 13.18703613 363.28518692 11.86535645 363.25165176 C-66.08392324 361.43040691 -145.70679167 376.46675313 -348.76062012 476.9850502 C-350.63407854 478.40654589 -352.52309426 479.80524526 -354.41589355 481.20087051 C-372.71910093 494.73116287 -390.22673935 509.29906075 -406.89001465 524.80389786 C-408.69666067 526.48478874 -410.50754623 528.16105703 -412.3182373 529.83758926 C-424.82651519 541.43140303 -424.82651519 541.43140303 -436.4119873 553.93133926 C-438.62315839 556.43788014 -440.89666756 558.87507118 -443.18469238 561.31122208 C-449.25022752 567.77303307 -454.98013279 574.3941082 -460.51745605 581.31805801 C-461.49873827 582.5096391 -462.48193651 583.69964398 -463.4666748 584.88837051 C-489.80221468 616.76079509 -512.27677646 651.76015617 -531.51745605 688.31805801 C-532.03420898 689.29951797 -532.55096191 690.28097794 -533.08337402 691.29217911 C-554.47595617 732.25347597 -570.17332546 775.56785065 -581.51745605 820.31805801 C-581.68612183 820.98176407 -581.8547876 821.64547012 -582.02856445 822.32928848 C-592.33144218 863.09428217 -598.57267927 905.87908717 -598.72058105 947.95477676 C-598.72764849 949.31483874 -598.73478115 950.67490038 -598.74197388 952.0349617 C-598.76149382 956.35849939 -598.76666634 960.68198038 -598.76745605 965.00555801 C-598.76775063 965.74368477 -598.7680452 966.48181152 -598.76834869 967.24230576 C-598.76981888 990.05719912 -598.45749813 1012.66266697 -595.51745605 1035.31805801 C-595.42035339 1036.08458694 -595.32325073 1036.85111588 -595.22320557 1037.64087296 C-590.09148118 1078.01796829 -582.26257284 1118.91569326 -568.1048584 1157.19769669 C-566.84603421 1160.70072517 -566.15016853 1162.82230609 -567.51745605 1166.31805801 C-569.28313404 1168.45633149 -569.28313404 1168.45633149 -571.63855076 1170.8082962 C-572.53229107 1171.70800967 -573.42603139 1172.60772313 -574.34685475 1173.53470063 C-575.34992359 1174.52921004 -576.35313053 1175.52358019 -577.35646057 1176.51782608 C-578.41391386 1177.57658703 -579.47070791 1178.63600676 -580.52689642 1179.69602942 C-583.43671955 1182.61257721 -586.35584249 1185.51966051 -589.27652705 1188.42532587 C-592.42237636 1191.55824763 -595.55957991 1194.6998055 -598.6978302 1197.84033585 C-604.13810583 1203.28218629 -609.58385741 1208.71850692 -615.03334236 1214.15113449 C-622.91241954 1222.00585443 -630.78322239 1229.8688226 -638.65201538 1237.73384354 C-651.41811632 1250.49337485 -664.1909056 1263.24618909 -676.96789551 1275.99481583 C-689.38123527 1288.38062825 -701.79142749 1300.76958041 -714.1973877 1313.16278458 C-714.96179584 1313.92640455 -715.72620398 1314.69002452 -716.51377601 1315.4767845 C-720.34847917 1319.3075726 -724.18312039 1323.13842269 -728.01773083 1326.96930361 C-759.84137663 1358.76183758 -791.67587572 1390.54348694 -823.51745605 1422.31805801 C-826.53328456 1418.63015774 -828.90061747 1415.02962807 -831.13464355 1410.81415176 C-831.46821869 1410.18737534 -831.80179382 1409.56059891 -832.14547729 1408.91482925 C-833.23382175 1406.8648587 -834.31370646 1404.81059203 -835.39245605 1402.75555801 C-835.76672729 1402.04587875 -836.14099854 1401.33619949 -836.52661133 1400.6050148 C-879.18390952 1319.71530374 -910.96834388 1233.81379745 -906.51745605 670.31805801 C-902.74132819 658.24235664 -898.70245338 646.25764044 -894.51745605 634.31805801 C-894.28455872 633.65308304 -894.05166138 632.98810806 -893.81170654 632.30298233 C-875.07027667 578.9281131 -851.47297589 525.97502069 -822.51745605 477.31805801 C-821.81288411 476.12650809 -821.1086393 474.93476468 -820.40466309 473.7428627 C-812.07440082 459.6521751 -803.68123158 445.60427544 -794.61560059 431.97040176 C-793.61588282 430.46615769 -792.62663335 428.95496964 -791.6385498 427.44305801 C-777.03384745 405.23633997 -761.58385963 383.5303632 -744.80895996 362.90936661 C-742.96775748 360.64075455 -741.14945353 358.3540933 -739.32995605 356.06805801 C-728.83447477 342.96486988 -718.08224915 330.11972822 -706.7322998 317.74774551 C-704.87738788 315.71290386 -703.06316807 313.65484554 -701.26745605 311.56805801 C-690.41427986 299.12786861 -678.77614842 287.41589244 -667.09265137 275.76288223 C-664.62109581 273.29674459 -662.15500902 270.82522697 -659.68933105 268.35321426 C-658.09329783 266.75784104 -656.49695486 265.16277762 -654.90026855 263.56805801 C-654.17614777 262.84191299 -653.45202698 262.11576797 -652.70596313 261.36761856 C-648.69166699 257.37152982 -644.58609115 253.54248824 -640.28898621 249.85147476 C-637.52351595 247.45771454 -634.87206778 244.94508087 -632.20495605 242.44305801 C-627.33160056 237.90457278 -622.31441628 233.62457004 -617.11901855 229.45477676 C-614.56758877 227.35923308 -612.13418832 225.17842647 -609.70495605 222.94305801 C-604.73675282 218.4215229 -599.50942028 214.30653596 -594.20495605 210.19305801 C-591.15671422 207.82793169 -588.1519487 205.41397009 -585.15563965 202.98358536 C-576.5905638 196.04951619 -567.76529908 189.5006862 -558.85241699 183.02215958 C-556.70273468 181.45327809 -554.56540516 179.86925654 -552.43151855 178.27899551 C-478.82763633 123.79334978 -394.90514277 81.49658628 -298.51745605 48.31805801 C-297.32861816 47.91538712 -296.13978027 47.51271622 -294.91491699 47.09784317 C-228.87289563 24.88235612 -160.21763255 11.12888725 -90.95495605 4.06805801 C-90.20968658 3.99083511 -89.46441711 3.91361221 -88.69656372 3.83404922 C-82.97605095 3.24987677 -77.25051128 2.76159646 -71.51745605 2.31805801 C-70.39401794 2.23085495 -69.27057983 2.14365189 -68.11309814 2.0538063 C-45.40557846 0.35239827 -22.76537191 -0.04707179 0 0 Z " fill="#122F4F" transform="translate(956.5174560546875,49.681941986083984)"/>
<path d="M0 0 C2.68297513 1.07794423 4.18317935 2.71121417 6.19279861 4.78209686 C7.0010408 5.60451874 7.80928299 6.42694061 8.64201736 7.27428436 C9.47861893 8.14053436 10.31522049 9.00678436 11.17717361 9.89928436 C12.82571803 11.59182447 14.47673194 13.28196304 16.13029861 14.96959686 C16.85894119 15.7225705 17.58758377 16.47554413 18.33830643 17.25133514 C20.31237734 19.17514208 22.29133894 20.9529964 24.38609695 22.73519135 C29.89700068 27.54424438 35.01775919 32.74080162 40.17326736 37.92272186 C41.28438156 39.03575894 42.39572639 40.14856582 43.50728226 41.2611618 C45.88657414 43.64359699 48.26430782 46.02757232 50.64082718 48.41277313 C54.40463765 52.19019049 58.17233496 55.96371518 61.94060135 59.73668671 C70.61823513 68.42632542 79.29083248 77.12098499 87.96338272 85.81569672 C95.91687079 93.78940446 103.87143713 101.7620287 111.83007145 109.73060036 C115.57000081 113.47548894 119.30748372 117.22279649 123.04306412 120.97202301 C125.37341883 123.30987686 127.7058793 125.64562127 130.03889465 127.9808197 C131.11362273 129.05740769 132.18749223 130.13485362 133.26039886 131.21325684 C139.92247752 137.92521488 139.92247752 137.92521488 146.92717361 144.27428436 C152.28563254 148.86870714 157.19852632 153.92249483 162.17326736 158.92272186 C163.28438156 160.03575894 164.39572639 161.14856582 165.50728226 162.2611618 C167.88657414 164.64359699 170.26430782 167.02757232 172.64082718 169.41277313 C176.40463765 173.19019049 180.17233496 176.96371518 183.94060135 180.73668671 C192.61823513 189.42632542 201.29083248 198.12098499 209.96338272 206.81569672 C217.91687079 214.78940446 225.87143713 222.7620287 233.83007145 230.73060036 C237.57000081 234.47548894 241.30748372 238.22279649 245.04306412 241.97202301 C247.37341883 244.30987686 249.7058793 246.64562127 252.03889465 248.9808197 C253.11362273 250.05740769 254.18749223 251.13485362 255.26039886 252.21325684 C261.92247752 258.92521488 261.92247752 258.92521488 268.92717361 265.27428436 C274.28563254 269.86870714 279.19852632 274.92249483 284.17326736 279.92272186 C285.28438156 281.03575894 286.39572639 282.14856582 287.50728226 283.2611618 C289.88657414 285.64359699 292.26430782 288.02757232 294.64082718 290.41277313 C298.40463765 294.19019049 302.17233496 297.96371518 305.94060135 301.73668671 C314.61823513 310.42632542 323.29083248 319.12098499 331.96338272 327.81569672 C339.91687079 335.78940446 347.87143713 343.7620287 355.83007145 351.73060036 C359.57000081 355.47548894 363.30748372 359.22279649 367.04306412 362.97202301 C369.37341883 365.30987686 371.7058793 367.64562127 374.03889465 369.9808197 C375.11362273 371.05740769 376.18749223 372.13485362 377.26039886 373.21325684 C383.92247752 379.92521488 383.92247752 379.92521488 390.92717361 386.27428436 C396.28563254 390.86870714 401.19852632 395.92249483 406.17326736 400.92272186 C407.28438156 402.03575894 408.39572639 403.14856582 409.50728226 404.2611618 C411.88657414 406.64359699 414.26430782 409.02757232 416.64082718 411.41277313 C420.40463765 415.19019049 424.17233496 418.96371518 427.94060135 422.73668671 C436.61823513 431.42632542 445.29083248 440.12098499 453.96338272 448.81569672 C461.91687079 456.78940446 469.87143713 464.7620287 477.83007145 472.73060036 C481.57000081 476.47548894 485.30748372 480.22279649 489.04306412 483.97202301 C491.37341883 486.30987686 493.7058793 488.64562127 496.03889465 490.9808197 C497.11362273 492.05740769 498.18749223 493.13485362 499.26039886 494.21325684 C505.92247752 500.92521488 505.92247752 500.92521488 512.92717361 507.27428436 C518.28563254 511.86870714 523.19852632 516.92249483 528.17326736 521.92272186 C529.28438156 523.03575894 530.39572639 524.14856582 531.50728226 525.2611618 C533.88657414 527.64359699 536.26430782 530.02757232 538.64082718 532.41277313 C542.40463765 536.19019049 546.17233496 539.96371518 549.94060135 543.73668671 C558.61823513 552.42632542 567.29083248 561.12098499 575.96338272 569.81569672 C583.91687079 577.78940446 591.87143713 585.7620287 599.83007145 593.73060036 C603.57000081 597.47548894 607.30748372 601.22279649 611.04306412 604.97202301 C613.37341883 607.30987686 615.7058793 609.64562127 618.03889465 611.9808197 C619.11362273 613.05740769 620.18749223 614.13485362 621.26039886 615.21325684 C627.91945802 621.92252219 627.91945802 621.92252219 634.92143631 628.26854706 C640.31458885 632.89277158 645.25795822 637.98199304 650.26506424 643.01451874 C651.38603055 644.13740788 652.50722746 645.26006686 653.62863541 646.38251495 C656.02920806 648.78623115 658.42822251 651.19148764 660.8260231 653.59796906 C664.62343917 657.40899071 668.42474094 661.21612088 672.22661209 665.02269745 C680.98165083 673.78974172 689.73165352 682.56180659 698.48160934 691.33392334 C706.50601124 699.37854422 714.53149099 707.42208206 722.56103849 715.4615674 C726.33441915 719.23990768 730.10535339 723.02066715 733.87438583 726.80334473 C736.22549983 729.16195719 738.578719 731.51846084 740.93249321 733.87441826 C742.01689652 734.96068168 743.10044115 736.04780316 744.18302345 737.13588142 C749.39115632 742.3696034 754.61313971 747.53592702 760.24503708 752.31855106 C763.17650388 754.85546394 765.88757149 757.61140191 768.61467361 760.36412811 C769.49663406 761.24821098 769.49663406 761.24821098 770.3964119 762.15015411 C772.24239722 764.00166054 774.08484253 765.85664253 775.92717361 767.71178436 C777.19126212 768.9808981 778.45558317 770.24978025 779.72014236 771.51842499 C782.79184085 774.60104756 785.8603737 777.68678864 788.92717361 780.77428436 C787.93717361 781.10428436 786.94717361 781.43428436 785.92717361 781.77428436 C784.21648026 780.91320038 784.21648026 780.91320038 782.33732986 779.52819061 C781.63414627 779.01965546 780.93096268 778.5111203 780.20647049 777.98717499 C779.47492752 777.44254608 778.74338455 776.89791718 777.98967361 776.33678436 C776.56528369 775.29451569 775.13946747 774.25419381 773.71232986 773.21569061 C772.95250809 772.66260223 772.19268631 772.10951385 771.40983963 771.53966522 C767.70138171 768.90264494 763.90681377 766.40076388 760.11296463 763.88878632 C755.12987363 760.5813642 750.18583338 757.21643854 745.2373848 753.85753632 C739.59483389 750.02871175 733.94772264 746.20660474 728.3018074 742.38274384 C726.69778669 741.29625954 725.09386668 740.20962657 723.49003983 739.12285614 C697.80368926 721.71797643 671.99492682 704.51289379 646.06500626 687.47310638 C639.4165684 683.10188095 632.78973925 678.6996301 626.17717361 674.27428436 C605.21745441 660.25563545 584.09273996 646.47970042 562.92717361 632.77428436 C561.83759354 632.06852264 561.83759354 632.06852264 560.72600174 631.34850311 C557.16510631 629.0423389 553.60329354 626.73760149 550.04045486 624.43444061 C547.34893087 622.69443347 544.65884435 620.95224252 541.97014236 619.20787811 C501.44578847 592.92728165 460.63637729 567.06758944 419.47404861 541.79772186 C415.18730001 539.16588719 410.90618176 536.52529595 406.63029861 533.87584686 C391.32827561 524.40446312 375.89148953 515.17942408 360.40211868 506.01918793 C355.06167904 502.85891978 349.74143847 499.66586097 344.42717361 496.46178436 C308.09046022 474.60079515 271.17834177 453.55323014 233.48967361 434.10631561 C231.08448844 432.85605929 228.69111601 431.58650175 226.30217361 430.30553436 C168.51831139 397.25098448 168.51831139 397.25098448 104.92717361 385.77428436 C103.89592361 385.86709686 102.86467361 385.95990936 101.80217361 386.05553436 C72.25411643 389.48521957 48.22224027 407.5424258 28.18498611 428.54381561 C26.25863234 430.44683984 24.29361821 432.20005547 22.24113846 433.96251678 C18.20537974 437.482555 14.40568073 441.18227231 10.64592361 444.99303436 C9.98813919 445.65460541 9.33035477 446.31617645 8.65263748 446.9977951 C6.57500087 449.08751171 4.50066735 451.18045751 2.42717361 453.27428436 C-0.30940789 456.03770136 -3.04944902 458.79762158 -5.79157639 461.55553436 C-6.40327682 462.17553314 -7.01497726 462.79553192 -7.64521408 463.43431854 C-11.94709679 467.76011518 -16.43748107 471.80940679 -21.07282639 475.77428436 C-21.69836914 476.31112854 -22.3239119 476.84797272 -22.96841049 477.4010849 C-58.17152869 507.49637128 -100.08181079 527.38867629 -146.07282639 533.77428436 C-147.33804123 533.95161102 -148.60325607 534.12893768 -149.90681076 534.31163788 C-162.53976249 535.95912141 -175.09717038 536.12937546 -187.82282639 536.08678436 C-188.89765274 536.08562622 -189.9724791 536.08446808 -191.07987595 536.08327484 C-210.58377944 536.04183993 -229.57708023 534.81411885 -248.88142014 531.90709686 C-275.92948656 527.93373799 -304.11117043 528.30743067 -331.07282639 532.77428436 C-332.27391037 532.97296112 -333.47499435 533.17163788 -334.71247482 533.37633514 C-405.83819179 545.50933184 -474.35804641 575.29470737 -536.57966232 611.34410858 C-539.66010943 613.11117274 -542.77159777 614.81673763 -545.88874435 616.51793671 C-557.52127819 622.87643106 -568.81279347 629.78184057 -580.07282639 636.77428436 C-581.35455734 637.56947479 -581.35455734 637.56947479 -582.66218185 638.38072968 C-608.2987917 654.35042025 -633.52003805 671.18564066 -658.07282639 688.77428436 C-659.18633469 689.57019989 -659.18633469 689.57019989 -660.3223381 690.38219452 C-665.59148728 694.15361769 -670.83864602 697.95450385 -676.07282639 701.77428436 C-676.85013107 702.34147186 -677.62743576 702.90865936 -678.42829514 703.49303436 C-689.10638421 711.29692328 -699.67897539 719.22744927 -710.15632248 727.29869843 C-711.94538389 728.67616176 -713.73702441 730.05017321 -715.52985764 731.42272186 C-728.27024665 741.18305872 -740.83497755 751.14424588 -753.26423264 761.29772186 C-754.86518118 762.60475977 -756.46880615 763.90851792 -758.07282639 765.21178436 C-763.5162586 769.642485 -768.89198917 774.14600399 -774.23981857 778.69103241 C-777.6327439 781.57019773 -781.05573014 784.40651017 -784.51032639 787.21178436 C-790.50368646 792.0949417 -796.36692727 797.12269121 -802.2183342 802.17418671 C-804.10255596 803.79993571 -805.98993627 805.42196494 -807.87751389 807.04381561 C-814.84010794 813.03866686 -821.69617415 819.12462171 -828.44392014 825.36022186 C-830.62768954 827.36552571 -832.83246563 829.33294507 -835.07282639 831.27428436 C-839.9712223 835.52495851 -844.7249919 839.93302284 -849.49518967 844.32604218 C-851.05665783 845.75944192 -852.62418799 847.18588092 -854.19392014 848.61022186 C-860.31701134 854.17429034 -866.28701517 859.85697744 -872.07282639 865.77428436 C-872.73282639 865.44428436 -873.39282639 865.11428436 -874.07282639 864.77428436 C-857.13377013 847.81184516 -840.19183437 830.85228667 -823.24648666 813.89613247 C-815.37815437 806.02264868 -807.51075925 798.14823272 -799.64558029 790.27159882 C-792.78855343 783.40459008 -785.92975767 776.53935388 -779.06885147 769.67622095 C-775.43771992 766.04378825 -771.80746706 762.41048725 -768.17933273 758.77506065 C-764.76049036 755.34940277 -761.33927763 751.92612987 -757.91627693 748.50462723 C-756.66418789 747.25226434 -755.41294775 745.99905204 -754.16264915 744.74490166 C-748.63272257 739.19878397 -743.111008 733.71874994 -737.15235519 728.62852573 C-732.16676027 724.18304927 -727.527889 719.34893472 -722.81696701 714.61608124 C-721.59747954 713.3946714 -720.37776183 712.1734914 -719.1578331 710.95252228 C-716.54445268 708.33599605 -713.93263032 705.71792816 -711.32201767 703.09864044 C-707.18854619 698.95157528 -703.05119944 694.8083907 -698.91328049 690.66576385 C-690.13015667 681.87156924 -681.35127056 673.07314986 -672.57282639 664.27428436 C-663.09377131 654.77317813 -653.61398127 645.27281224 -644.12929106 635.77733088 C-640.02139713 631.66447378 -635.91594945 627.5491954 -631.812397 623.43200684 C-629.25369049 620.86580791 -626.69288412 618.30171219 -624.13152122 615.7381649 C-622.95036549 614.55514722 -621.77006938 613.37127049 -620.59073067 612.18644142 C-615.24886238 606.82050233 -609.89995952 601.54299765 -604.14258194 596.61819458 C-599.35157668 592.34996903 -594.89242944 587.71371182 -590.36774826 583.16686249 C-589.20737348 582.00456507 -588.04676825 580.84249768 -586.885952 579.68064117 C-584.40025627 577.19180095 -581.91611868 574.70141986 -579.43319321 572.20981598 C-575.50135484 568.26437705 -571.56563518 564.32282501 -567.62934494 560.38182831 C-559.27419804 552.01561343 -550.92329051 543.64517281 -542.57282639 535.27428436 C-533.55570731 526.23511039 -524.53785118 517.19667914 -515.51509333 508.16313314 C-511.60790741 504.25098611 -507.70316784 500.33641901 -503.8003273 496.41993713 C-501.36617623 493.97829015 -498.92992223 491.53874962 -496.49311256 489.09975624 C-495.3700083 487.9747911 -494.24776312 486.84896748 -493.1264782 485.72218895 C-487.8961852 480.46709453 -482.6463825 475.31187676 -477.010746 470.48635864 C-473.12031002 467.04931444 -469.50403553 463.32622506 -465.84626389 459.64537811 C-464.96061752 458.75827148 -464.07497116 457.87116486 -463.16248703 456.95717621 C-461.25169038 455.04259232 -459.34181735 453.12713911 -457.43348312 451.2101059 C-454.40899963 448.17197929 -451.38059751 445.13777853 -448.35163498 442.10411835 C-441.92238156 435.66381431 -435.49737772 429.21927849 -429.07282639 422.77428436 C-422.13442245 415.81380257 -415.19526863 408.85407808 -408.25120354 401.89924335 C-405.24720143 398.89029278 -402.2456463 395.8789297 -399.24601364 392.86562347 C-396.93248067 390.54280804 -394.61565715 388.22327798 -392.29938889 385.90319061 C-391.48045151 385.07908691 -390.66151413 384.25498322 -389.81776047 383.40590668 C-385.7018384 379.28960951 -381.50215005 375.36555825 -377.09228134 371.56789398 C-373.21392551 368.12327329 -369.59302965 364.41546781 -365.93806076 360.73717499 C-365.06216797 359.85982193 -364.18627518 358.98246887 -363.28384018 358.07852936 C-361.39432414 356.18522644 -359.50573191 354.29105466 -357.61867905 352.39530182 C-354.62780154 349.39077913 -351.63300359 346.39018418 -348.63764572 343.39012909 C-342.27972157 337.02115517 -335.92604751 330.64794917 -329.57282639 324.27428436 C-322.71141203 317.39079103 -315.84924718 310.50805573 -308.98217058 303.6302104 C-306.01161964 300.65471159 -303.04351568 297.67680066 -300.07733536 294.69694519 C-297.78943021 292.39975625 -295.49823326 290.10585388 -293.20759201 287.81139374 C-292.39800537 286.99664078 -291.58841873 286.18188782 -290.75429916 285.34244537 C-287.28468866 281.87251519 -283.79753452 278.48270265 -280.07856369 275.28002167 C-275.44468148 271.28858155 -271.15548379 266.98178302 -266.84626389 262.64537811 C-265.96061752 261.75827148 -265.07497116 260.87116486 -264.16248703 259.95717621 C-262.25169038 258.04259232 -260.34181735 256.12713911 -258.43348312 254.2101059 C-255.40899963 251.17197929 -252.38059751 248.13777853 -249.35163498 245.10411835 C-242.92238156 238.66381431 -236.49737772 232.21927849 -230.07282639 225.77428436 C-223.13442245 218.81380257 -216.19526863 211.85407808 -209.25120354 204.89924335 C-206.24720143 201.89029278 -203.2456463 198.8789297 -200.24601364 195.86562347 C-197.93248067 193.54280804 -195.61565715 191.22327798 -193.29938889 188.90319061 C-192.48045151 188.07908691 -191.66151413 187.25498322 -190.81776047 186.40590668 C-186.70365039 182.29142166 -182.50576626 178.3694924 -178.09788132 174.57349396 C-174.18589729 171.09779605 -170.53362633 167.35600253 -166.84626389 163.64537811 C-165.96061752 162.75827148 -165.07497116 161.87116486 -164.16248703 160.95717621 C-162.25169038 159.04259232 -160.34181735 157.12713911 -158.43348312 155.2101059 C-155.40899963 152.17197929 -152.38059751 149.13777853 -149.35163498 146.10411835 C-142.92238156 139.66381431 -136.49737772 133.21927849 -130.07282639 126.77428436 C-123.13442245 119.81380257 -116.19526863 112.85407808 -109.25120354 105.89924335 C-106.24720143 102.89029278 -103.2456463 99.8789297 -100.24601364 96.86562347 C-97.93248067 94.54280804 -95.61565715 92.22327798 -93.29938889 89.90319061 C-92.48045151 89.07908691 -91.66151413 88.25498322 -90.81776047 87.40590668 C-86.67260961 83.26037805 -82.44273367 79.3050386 -78.00099564 75.48052216 C-74.66308701 72.52680538 -71.55823022 69.3483063 -68.43513107 66.17076874 C-67.71862381 65.44637604 -67.00211655 64.72198334 -66.26389694 63.97563934 C-64.72314899 62.41781625 -63.18346201 60.85894321 -61.64474869 59.29911041 C-58.37348196 55.98555147 -55.09269316 52.68148892 -51.81246948 49.37680054 C-45.7173445 43.23600509 -39.62625356 37.09133327 -33.55134201 30.93053436 C-29.31239209 26.63238611 -25.06149587 22.34638448 -20.80229568 18.06830597 C-19.1821955 16.43643275 -17.56664932 14.80002556 -15.95572281 13.15909576 C-13.71277048 10.87538549 -11.45495788 8.60745141 -9.19294357 6.34264374 C-8.19543579 5.31581482 -8.19543579 5.31581482 -7.17777634 4.26824188 C-6.56119156 3.65708527 -5.94460678 3.04592865 -5.30933762 2.41625214 C-4.77771389 1.87872063 -4.24609016 1.34118912 -3.69835663 0.78736877 C-2.07282639 -0.22571564 -2.07282639 -0.22571564 0 0 Z " fill="#FC584B" transform="translate(963.072826385498,1005.225715637207)"/>
</svg>
